<svg xmlns="http://www.w3.org/2000/svg" viewBox="0 0 120 120" role="img" aria-label="AgroFusion">
  <defs>
    <linearGradient id="g" x1="0%" y1="0%" x2="100%" y2="100%">
      <stop offset="0%" stop-color="#22c55e"/>
      <stop offset="100%" stop-color="#166534"/>
    </linearGradient>
  </defs>
  <circle cx="60" cy="60" r="58" fill="url(#g)"/>
  <path fill="#ecfdf5" d="M60 18c-8 14-24 18-24 36 0 14 11 24 24 24s24-10 24-24c0-18-16-22-24-36zm0 52c-9 0-16-7-16-16 0-10 8-14 16-24 8 10 16 14 16 24 0 9-7 16-16 16z"/>
  <path fill="#bbf7d0" d="M60 44c-4 8-12 10-12 20 0 7 5 12 12 12s12-5 12-12c0-10-8-12-12-20z"/>
</svg>
